# xmcd CD database file
#
# Track frame offsets:
#	150
#	15682
#	30700
#	53100
#	74853
#	93328
#	115433
#	129950
#	152514
#	174702
#	196068
#	212631
#
# Disc length: 3092 seconds
#
# Revision: 0
# Processed by: cddbd v1.5.2PL0 Copyright (c) Steve Scherf et al.
# Submitted via: CDex 1.40Beta9
#
DISCID=a40c120c
DTITLE=The Very Girls - Everywhere Bound
DYEAR=2003
DGENRE=Country
TTITLE0=Clayton (Intro)
TTITLE1=Roundtrip Kiss
TTITLE2=The Blue Zone
TTITLE3=Whishes for Your Love
TTITLE4=Hollow World
TTITLE5=Crash
TTITLE6=My Own Way
TTITLE7=This Town
TTITLE8=Dancing on the World
TTITLE9=Win Back Your Love
TTITLE10=Clayton (Outtro)
TTITLE11=A Letter to Your Wedding (Bonus Track)
EXTD=YEAR: 2003 ID3G: 2
EXTT0=
EXTT1=
EXTT2=
EXTT3=
EXTT4=
EXTT5=
EXTT6=
EXTT7=
EXTT8=
EXTT9=
EXTT10=
EXTT11=
PLAYORDER=
